<svg xmlns="http://www.w3.org/2000/svg" viewBox="0 0 706.34 443.15"><title>Asset 9</title><g id="Layer_2" data-name="Layer 2"><g id="Layer_1-2" data-name="Layer 1"><path d="M705.84,357.51,17.49,442.87v-.07L15.39,68.87l.71-.09L16.26,70a.27.27,0,0,0,.27.24h.75a.27.27,0,0,0,.26-.23l.39-2.48a11.92,11.92,0,0,0,3.39-.73l1.34,2A.28.28,0,0,0,23,69l.66-.32a.27.27,0,0,0,.14-.32L23.1,66a12.57,12.57,0,0,0,2.41-1.75l2,1.39a.26.26,0,0,0,.35,0l.5-.55a.27.27,0,0,0,0-.35l-1.53-1.9a12.65,12.65,0,0,0,1.47-2.32l2.29.6a.26.26,0,0,0,.32-.16l.28-.68a.27.27,0,0,0-.11-.33L29,58.64a11.42,11.42,0,0,0,.5-2.69l2.4-.31a.28.28,0,0,0,.24-.27v-.74a.27.27,0,0,0-.23-.27L29.51,54A11.52,11.52,0,0,0,29,51.22h0l2.07-1.11a.27.27,0,0,0,.12-.34l-.26-.68a.27.27,0,0,0-.31-.17l-2.33.5a12.37,12.37,0,0,0-1.46-2.29l1.56-1.7a.26.26,0,0,0,0-.36l-.47-.57a.27.27,0,0,0-.35-.05L25.5,45.69c-.18-.17-.37-.33-.56-.49l.32-2.1A18.71,18.71,0,0,0,30.51,42l2.09,3.19a.42.42,0,0,0,.54.14l1-.49a.43.43,0,0,0,.22-.51l-1.1-3.6A19.21,19.21,0,0,0,37,38l3.11,2.16a.42.42,0,0,0,.55-.06l.76-.85a.41.41,0,0,0,0-.54l-2.37-3a19.69,19.69,0,0,0,2.27-3.6l3.55.94a.41.41,0,0,0,.5-.25l.43-1.05a.42.42,0,0,0-.17-.52L42.44,29.3a19.11,19.11,0,0,0,.77-4.16l2.07-.27a10.13,10.13,0,0,0,.8,1.14l-1.56,2a.27.27,0,0,0,0,.35l.52.52a.28.28,0,0,0,.36,0l2-1.48a12.68,12.68,0,0,0,2.49,1.81l-.73,2.35a.26.26,0,0,0,.15.32l.67.31a.28.28,0,0,0,.34-.1l1.37-2.08a12.2,12.2,0,0,0,3.27.69l.32,2.47a.26.26,0,0,0,.27.24h.74a.27.27,0,0,0,.27-.23L57,30.76A11.6,11.6,0,0,0,60.36,30l1.35,2.06a.27.27,0,0,0,.34.09l.67-.32a.27.27,0,0,0,.14-.32l-.72-2.33a12.21,12.21,0,0,0,2.41-1.76l2,1.4a.27.27,0,0,0,.36,0l.49-.54a.27.27,0,0,0,0-.36L65.88,26a13.08,13.08,0,0,0,1.47-2.33l2.29.6a.26.26,0,0,0,.32-.16l.28-.68a.26.26,0,0,0-.11-.33l-2.08-1.26a10.9,10.9,0,0,0,.46-2.23H705.84ZM682.4,292.16V51.65a11.9,11.9,0,0,0-11.87-11.87h-618A11.9,11.9,0,0,0,40.69,51.65V292.16A11.9,11.9,0,0,0,52.55,304h618A11.9,11.9,0,0,0,682.4,292.16Z" style="fill:#ffde17"/><path d="M71.19,17.85v.74a.26.26,0,0,1-.24.27l-2.4.31a9.63,9.63,0,0,0,0-2l2.41.37A.27.27,0,0,1,71.19,17.85Z" style="fill:#282828"/><path d="M70,24.12a.26.26,0,0,1-.32.16l-2.29-.6a11.52,11.52,0,0,0,.7-1.83l2.08,1.26a.26.26,0,0,1,.11.33Z" style="fill:#282828"/><path d="M70.23,13a.26.26,0,0,1-.12.33L68,14.44a12.83,12.83,0,0,0-.71-1.81l2.33-.5a.26.26,0,0,1,.31.17Z" style="fill:#282828"/><path d="M68.55,17.21a9.63,9.63,0,0,1,0,2l-.19,0v-2Z" style="fill:#282828"/><path d="M67.9,21.76l.15.09a11.52,11.52,0,0,1-.7,1.83l-.21-.06Z" style="fill:#282828"/><path d="M68,14.44l-.21.12-.72-1.88.22,0A12.83,12.83,0,0,1,68,14.44Z" style="fill:#282828"/><path d="M67.41,27.9a.27.27,0,0,1,0,.36l-.49.54a.27.27,0,0,1-.36,0l-2-1.4A11.21,11.21,0,0,0,65.88,26Z" style="fill:#282828"/><path d="M67,7.72l.47.56a.27.27,0,0,1,0,.36l-1.57,1.7a12.71,12.71,0,0,0-1.32-1.43l2.08-1.25A.27.27,0,0,1,67,7.72Z" style="fill:#282828"/><path d="M65.77,25.87l.11.14a11.21,11.21,0,0,1-1.33,1.43l-.12-.08Z" style="fill:#282828"/><path d="M65.86,10.34l-.19.21L64.38,9l.16-.1A12.71,12.71,0,0,1,65.86,10.34Z" style="fill:#282828"/><path d="M62.86,31.53a.27.27,0,0,1-.14.32l-.67.32a.27.27,0,0,1-.34-.09L60.36,30a10.62,10.62,0,0,0,1.78-.82Z" style="fill:#282828"/><path d="M61.79,4.39a.28.28,0,0,1,.35-.09l.66.31a.28.28,0,0,1,.14.33L62.2,7.2a11,11,0,0,0-1.77-.82Z" style="fill:#282828"/><path d="M62.2,7.2l-.07.21-1.81-.87.11-.16A11,11,0,0,1,62.2,7.2Z" style="fill:#282828"/><path d="M62.09,29l0,.17a10.62,10.62,0,0,1-1.78.82l-.07-.11Z" style="fill:#282828"/><path d="M57,5.61l0,.21H55l0-.21a9.63,9.63,0,0,1,2,0Z" style="fill:#282828"/><path d="M57,30.64l0,.12a9.83,9.83,0,0,1-2,0l0-.12Z" style="fill:#282828"/><path d="M56.32,33.47h-.74a.26.26,0,0,1-.27-.24L55,30.76a9.83,9.83,0,0,0,2,0l-.38,2.48A.27.27,0,0,1,56.32,33.47Z" style="fill:#282828"/><path d="M55.64,3h.75a.28.28,0,0,1,.27.24L57,5.61a9.63,9.63,0,0,0-2,0l.37-2.4A.28.28,0,0,1,55.64,3Z" style="fill:#282828"/><path d="M51.83,6.26l.09.15-1.84.8,0-.16A12.47,12.47,0,0,1,51.83,6.26Z" style="fill:#282828"/><path d="M50.59,4.18l1.24,2.08A12.47,12.47,0,0,0,50,7.05l-.62-2.36a.27.27,0,0,1,.15-.32l.68-.3A.29.29,0,0,1,50.59,4.18Z" style="fill:#282828"/><path d="M51.78,30l-.06.1a13.15,13.15,0,0,1-1.8-.8l0-.13Z" style="fill:#282828"/><path d="M50.35,32.15a.28.28,0,0,1-.34.1l-.67-.31a.26.26,0,0,1-.15-.32l.73-2.35a13.15,13.15,0,0,0,1.8.8Z" style="fill:#282828"/><path d="M48.17,22.92A9.13,9.13,0,0,0,65.1,18.48l1,0c.51.36,1,.76,1.5,1.12h.89a10.9,10.9,0,0,1-.46,2.23l-.15-.09-.76,1.86.21.06A13.08,13.08,0,0,1,65.88,26l-.11-.14-1.34,1.49.12.08a12.21,12.21,0,0,1-2.41,1.76l0-.17-1.8.88.07.11a11.6,11.6,0,0,1-3.39.74l0-.12H55l0,.12a12.2,12.2,0,0,1-3.27-.69l.06-.1L50,29.14l0,.13a12.68,12.68,0,0,1-2.49-1.81l.09-.06L46.1,26l0,0a10.13,10.13,0,0,1-.8-1.14l1.64-.21a.41.41,0,0,0,.37-.41V23.09a.4.4,0,0,0,0-.15Z" style="fill:#282828"/><path d="M47.73,8.78l-1.37,1.47-.09-.12a11.41,11.41,0,0,1,1.37-1.41Z" style="fill:#282828"/><path d="M47.52,27.4l-.09.06A11.59,11.59,0,0,1,46.08,26l0,0Z" style="fill:#282828"/><path d="M47.43,27.46l-2,1.48a.28.28,0,0,1-.36,0l-.52-.52a.27.27,0,0,1,0-.35l1.56-2A11.59,11.59,0,0,0,47.43,27.46Z" style="fill:#282828"/><path d="M47.29,23.09v1.16a.41.41,0,0,1-.37.41l-1.64.21a10.29,10.29,0,0,1-.58-1l.08,0-.64-1.59,2.8.43a.42.42,0,0,1,.32.27A.4.4,0,0,1,47.29,23.09Z" style="fill:#282828"/><path d="M57,5.61a11.83,11.83,0,0,1,3.47.77l-.11.16,1.81.87.07-.21a12.78,12.78,0,0,1,2.34,1.71l-.16.1,1.29,1.54.19-.21a12.71,12.71,0,0,1,1.46,2.29l-.22,0,.72,1.88.21-.12a11.6,11.6,0,0,1,.52,2.77l-.19,0v2l.19,0a2.28,2.28,0,0,1,0,.45h-.89c-.51-.36-1-.76-1.5-1.12l-1,0a2.81,2.81,0,0,0,0-.29,9.13,9.13,0,1,0-16.94,4.73l-.91,0a.42.42,0,0,0-.32-.27l-2.8-.43L44,22,44,22a11.53,11.53,0,0,1-.54-2.83l.13,0v-2l2.07-1.12a.42.42,0,0,0,.19-.52l-.41-1.07a.43.43,0,0,0-.48-.26l-.88.19.74-1.87-.07,0a12.4,12.4,0,0,1,1.57-2.4l.09.12,1.37-1.47-.09-.06A12.12,12.12,0,0,1,50,7.05l0,.16,1.84-.8-.09-.15A11.83,11.83,0,0,1,55,5.61l0,.21h2Z" style="fill:#282828"/><path d="M45.62,7.27l2,1.45a11.41,11.41,0,0,0-1.37,1.41L44.75,8.19a.26.26,0,0,1,0-.35l.51-.54A.26.26,0,0,1,45.62,7.27Z" style="fill:#282828"/><path d="M45.65,31.24a.42.42,0,0,1,.17.52l-.43,1.05a.41.41,0,0,1-.5.25l-3.55-.94a20.87,20.87,0,0,0,1.1-2.82Z" style="fill:#282828"/><path d="M45.28,24.87l-2.07.27a7.56,7.56,0,0,0,0-.95l1.44-.34A10.29,10.29,0,0,0,45.28,24.87Z" style="fill:#282828"/><path d="M43.93,14.44l.1,0,.88-.19a.43.43,0,0,1,.48.26l.41,1.07a.42.42,0,0,1-.19.52L43.54,17.2v0l-.13,0A11.61,11.61,0,0,1,43.93,14.44Z" style="fill:#282828"/><path d="M44.14,22.24l.64,1.59-.08,0A10.53,10.53,0,0,1,44,22.22Z" style="fill:#282828"/><path d="M44,14.37a12.24,12.24,0,0,1,.75-1.84l.07,0L44,14.42Z" style="fill:#282828"/><path d="M41.94,12.08a.26.26,0,0,1,.32-.16l2.44.61A12.24,12.24,0,0,0,44,14.37L41.78,13.1a.27.27,0,0,1-.11-.33Z" style="fill:#282828"/><path d="M43.26,24.19a5.62,5.62,0,0,0,0-.58c0-.4,0-.8,0-1.19l.44-.25.35,0a10.53,10.53,0,0,0,.67,1.63Z" style="fill:#282828"/><path d="M44,22l.11.27-.11,0A.9.9,0,0,1,44,22Z" style="fill:#282828"/><path d="M44,22.22l-.35,0L44,22A.9.9,0,0,0,44,22.22Z" style="fill:#282828"/><path d="M44,14.42l-.1,0a.25.25,0,0,1,0-.07Z" style="fill:#282828"/><path d="M41.29,15l2.64-.58a11.61,11.61,0,0,0-.52,2.76l-1.16.15A19,19,0,0,0,41.29,15Z" style="fill:#282828"/><path d="M43.68,22.17l-.44.25a1.66,1.66,0,0,0,0-.32Z" style="fill:#282828"/><path d="M43.54,17.2v2l-.13,0a8.21,8.21,0,0,1,0-1c0-.31,0-.62,0-.92Z" style="fill:#282828"/><path d="M43.54,17.18v0l-.14.07a.08.08,0,0,1,0-.07Z" style="fill:#282828"/><path d="M43.41,17.2a.08.08,0,0,0,0,.07l-1,.54a4.11,4.11,0,0,0-.15-.46Z" style="fill:#282828"/><path d="M43.36,18.19a8.21,8.21,0,0,0,0,1l-.67-.1c-.09-.43-.21-.85-.34-1.27l1-.54C43.37,17.57,43.36,17.88,43.36,18.19Z" style="fill:#282828"/><path d="M43.28,23.61a5.62,5.62,0,0,1,0,.58l-.35.08V22.6l.33-.18C43.27,22.81,43.28,23.21,43.28,23.61Z" style="fill:#282828"/><path d="M42.91,25.18v-.91l.35-.08a7.56,7.56,0,0,1,0,.95Z" style="fill:#282828"/><path d="M43.21,22.1a1.66,1.66,0,0,1,0,.32l-.33.18v-.55Z" style="fill:#282828"/><path d="M41.93,24.26l-.28-.68a.28.28,0,0,1,.12-.34l1.14-.64v1.67l-.67.16A.27.27,0,0,1,41.93,24.26Z" style="fill:#282828"/><path d="M42.19,29.15l.25.15a20.87,20.87,0,0,1-1.1,2.82L41,32Z" style="fill:#282828"/><path d="M42.25,17.35a4.11,4.11,0,0,1,.15.46l-.33.18-.23-.59Z" style="fill:#282828"/><path d="M42.25,17.35l-.41,0L41,15.09l.33-.07A19,19,0,0,1,42.25,17.35Z" style="fill:#282828"/><path d="M40.94,17.52l.9-.12.23.59.33-.18c.13.42.25.84.34,1.27l-1.81-.28a.27.27,0,0,1-.23-.27v-.74A.28.28,0,0,1,40.94,17.52Z" style="fill:#282828"/><path d="M41.44,38.67a.41.41,0,0,1,0,.54l-.76.85a.42.42,0,0,1-.55.06L37,38a17.5,17.5,0,0,0,2.07-2.24Z" style="fill:#282828"/><path d="M40.74,7.39l.74.88a.41.41,0,0,1,0,.55L39,11.46a17.75,17.75,0,0,0-2-2.21L40.2,7.3A.44.44,0,0,1,40.74,7.39Z" style="fill:#282828"/><path d="M38.9,35.52l.17.2A17.5,17.5,0,0,1,37,38l-.19-.13Z" style="fill:#282828"/><path d="M39,11.46l-.29.32-2-2.38L37,9.25A17.75,17.75,0,0,1,39,11.46Z" style="fill:#282828"/><path d="M34.58,23.41v.53a.19.19,0,0,1-.17.19l-1.71.22c0-.23,0-.46,0-.7s0-.47,0-.7l1.72.27A.19.19,0,0,1,34.58,23.41Z" style="fill:#282828"/><path d="M34.38,44.28a.43.43,0,0,1-.22.51l-1,.49a.42.42,0,0,1-.54-.14L30.51,42a18.27,18.27,0,0,0,2.77-1.27Z" style="fill:#282828"/><path d="M34.29,2.59a.43.43,0,0,1,.22.51L33.35,6.59a18.84,18.84,0,0,0-2.73-1.27l2.11-3.08a.41.41,0,0,1,.53-.15Z" style="fill:#282828"/><path d="M33.9,27.41l-.2.49a.18.18,0,0,1-.23.11l-1.64-.44a9.11,9.11,0,0,0,.51-1.29l1.48.89A.19.19,0,0,1,33.9,27.41Z" style="fill:#282828"/><path d="M33.89,19.93a.19.19,0,0,1-.09.24l-1.48.8a8.05,8.05,0,0,0-.51-1.29l1.67-.36a.19.19,0,0,1,.22.12Z" style="fill:#282828"/><path d="M33.35,6.59l-.1.32-2.8-1.34.17-.25A18.84,18.84,0,0,1,33.35,6.59Z" style="fill:#282828"/><path d="M33.2,40.42l.08.26A18.27,18.27,0,0,1,30.51,42l-.11-.17Z" style="fill:#282828"/><path d="M32.56,24.37V22.93l.14,0c0,.23,0,.46,0,.7s0,.47,0,.7Z" style="fill:#282828"/><path d="M32.32,21l-.15.08-.51-1.34.15,0A8.05,8.05,0,0,1,32.32,21Z" style="fill:#282828"/><path d="M32.15,54.63v.74a.28.28,0,0,1-.24.27l-2.4.31a8.21,8.21,0,0,0,0-1,7.94,7.94,0,0,0,0-1l2.41.38A.27.27,0,0,1,32.15,54.63Z" style="fill:#282828"/><path d="M32.34,26.28a9.11,9.11,0,0,1-.51,1.29l-.15,0,.54-1.32Z" style="fill:#282828"/><path d="M31.9,16.56a.2.2,0,0,1,0,.26L30.77,18a11.36,11.36,0,0,0-.94-1l1.48-.89a.2.2,0,0,1,.25,0Z" style="fill:#282828"/><path d="M31.87,30.85l-.35.39a.19.19,0,0,1-.26,0l-1.42-1a8.32,8.32,0,0,0,.94-1l1.1,1.35A.18.18,0,0,1,31.87,30.85Z" style="fill:#282828"/><path d="M30.92,60.9a.26.26,0,0,1-.32.16l-2.29-.6a13.7,13.7,0,0,0,.7-1.82l2.08,1.25a.27.27,0,0,1,.11.33Z" style="fill:#282828"/><path d="M30.7,29.15l.08.1a8.32,8.32,0,0,1-.94,1l-.1-.07Z" style="fill:#282828"/><path d="M31.18,49.76a.27.27,0,0,1-.12.34L29,51.21a12.25,12.25,0,0,0-.71-1.8l2.33-.5a.27.27,0,0,1,.31.17Z" style="fill:#282828"/><path d="M29.83,17a11.36,11.36,0,0,1,.94,1l-.14.15-.92-1.1Z" style="fill:#282828"/><path d="M29.51,54a7.94,7.94,0,0,1,0,1,8.21,8.21,0,0,1,0,1l-.2,0V54Z" style="fill:#282828"/><path d="M28.85,58.54l.16.1a13.7,13.7,0,0,1-.7,1.82l-.22-.06Z" style="fill:#282828"/><path d="M29,51.21h0l-.21.11-.72-1.87.22-.05A12.25,12.25,0,0,1,29,51.21Z" style="fill:#282828"/><path d="M26.88,15.2l1-1.42a.19.19,0,0,1,.24-.07l.48.23a.19.19,0,0,1,.1.24l-.53,1.62A7,7,0,0,0,26.88,15.2Z" style="fill:#282828"/><path d="M27.8,33.59l-1-1.47a7.85,7.85,0,0,0,1.28-.59l.51,1.66a.21.21,0,0,1-.1.24l-.48.23A.19.19,0,0,1,27.8,33.59Z" style="fill:#282828"/><path d="M28.37,64.68a.27.27,0,0,1,0,.35l-.5.55a.26.26,0,0,1-.35,0l-2-1.39a11.38,11.38,0,0,0,1.33-1.45Z" style="fill:#282828"/><path d="M28.38,45.42l-1.56,1.7a11.9,11.9,0,0,0-1.32-1.43l2.07-1.25a.27.27,0,0,1,.35.05l.47.57A.26.26,0,0,1,28.38,45.42Z" style="fill:#282828"/><path d="M28.15,15.8l0,.14-1.3-.62.08-.12A7,7,0,0,1,28.15,15.8Z" style="fill:#282828"/><path d="M28.07,31.41l0,.12a7.85,7.85,0,0,1-1.28.59l0-.08Z" style="fill:#282828"/><path d="M26.73,62.65l.11.13a11.38,11.38,0,0,1-1.33,1.45l-.13-.09Z" style="fill:#282828"/><path d="M26.82,47.12l-.19.21-1.29-1.54.16-.1A11.9,11.9,0,0,1,26.82,47.12Z" style="fill:#282828"/><path d="M25.25,4.13l0,.32H22.16l.05-.32c.5,0,1-.07,1.52-.07S24.75,4.08,25.25,4.13Z" style="fill:#282828"/><path d="M25.29,42.91l0,.19c-.51,0-1,.07-1.53.07h-.31l.08-.25Z" style="fill:#282828"/><path d="M25.26,43.1l-.32,2.1A12.9,12.9,0,0,0,23.15,44l.27-.81h.31C24.24,43.17,24.75,43.15,25.26,43.1Z" style="fill:#282828"/><path d="M24.4,14.65l0,.15H23l0-.15c.23,0,.46,0,.7,0S24.17,14.63,24.4,14.65Z" style="fill:#282828"/><path d="M24.42,32.56v.09c-.23,0-.47,0-.71,0s-.48,0-.71,0v-.09Z" style="fill:#282828"/><path d="M23.81,68.31a.27.27,0,0,1-.14.32L23,69a.28.28,0,0,1-.35-.09l-1.34-2A11.53,11.53,0,0,0,23.1,66Z" style="fill:#282828"/><path d="M22.21,4.13,22.79.42A.42.42,0,0,1,23.2.06h1.16a.43.43,0,0,1,.42.37l.47,3.7c-.5,0-1-.07-1.52-.07S22.71,4.08,22.21,4.13Z" style="fill:#282828"/><path d="M23.7,32.68c.24,0,.48,0,.71,0l-.28,1.77a.19.19,0,0,1-.19.16h-.53a.19.19,0,0,1-.19-.17L23,32.65C23.22,32.67,23.46,32.68,23.7,32.68Z" style="fill:#282828"/><path d="M23.5,42.91l-.08.25c-.42,0-.83,0-1.24-.06l0-.19Z" style="fill:#282828"/><path d="M23.42,43.16l-.27.81c-.29-.17-.6-.32-.91-.47l-.06-.4C22.59,43.14,23,43.16,23.42,43.16Z" style="fill:#282828"/><path d="M23.15,44l-.07.22-.8-.39,0-.3C22.55,43.65,22.86,43.8,23.15,44Z" style="fill:#282828"/><path d="M23.05,65.81l.05.17a11.53,11.53,0,0,1-1.78.83l-.08-.12Z" style="fill:#282828"/><path d="M24.67,46.94a.43.43,0,0,1-.42.36H23.1a.43.43,0,0,1-.42-.37l-.4-3.13.8.39.07-.22a12.9,12.9,0,0,1,1.79,1.23Z" style="fill:#282828"/><path d="M23.46,12.77H24a.19.19,0,0,1,.19.17l.22,1.71c-.23,0-.46,0-.7,0s-.47,0-.7,0l.27-1.71A.19.19,0,0,1,23.46,12.77Z" style="fill:#282828"/><path d="M22.28,43.8l-1-.48.12-.17.85.35Z" style="fill:#282828"/><path d="M22.18,43.1l.06.4-.85-.35.08-.11C21.71,43.07,21.94,43.09,22.18,43.1Z" style="fill:#282828"/><path d="M23.75,41.39a.26.26,0,0,1,.14.33l-.39,1.19H22.16l0,.19c-.24,0-.47,0-.71-.06l1.28-1.87a.28.28,0,0,1,.34-.1Z" style="fill:#282828"/><path d="M20.73,15.13l.06.09-1.31.58,0-.12A7.71,7.71,0,0,1,20.73,15.13Z" style="fill:#282828"/><path d="M19.84,13.63l.89,1.5a7.71,7.71,0,0,0-1.28.55L19,14a.21.21,0,0,1,.11-.23l.49-.21A.19.19,0,0,1,19.84,13.63Z" style="fill:#282828"/><path d="M20.69,32.08l0,.07a8.32,8.32,0,0,1-1.29-.58l0-.09Z" style="fill:#282828"/><path d="M19.67,33.64a.2.2,0,0,1-.25.07L19,33.49a.19.19,0,0,1-.11-.23l.52-1.69a8.32,8.32,0,0,0,1.29.58Z" style="fill:#282828"/><path d="M18.43,42.44A11,11,0,0,1,20.8,43,18.47,18.47,0,0,1,18.43,42.44Z" style="fill:#282828"/><path d="M17.92,42.39l0,.2h-1.2l.16-.25h0A7.94,7.94,0,0,1,17.92,42.39Z" style="fill:#282828"/><path d="M18,67.42l0,.12a9.83,9.83,0,0,1-2,0l0-.12Z" style="fill:#282828"/><path d="M16.74,17.88a11.68,11.68,0,0,1,1-1l.07.05-1,1Z" style="fill:#282828"/><path d="M17.31,5.15l.13.22L14.59,6.61l-.07-.25A19.26,19.26,0,0,1,17.31,5.15Z" style="fill:#282828"/><path d="M16.63,29.23l1,1-.08.06a12,12,0,0,1-1-1.05Z" style="fill:#282828"/><path d="M15.37,1.92l1.94,3.23a19.26,19.26,0,0,0-2.79,1.21l-1-3.66a.42.42,0,0,1,.24-.49l1-.46A.43.43,0,0,1,15.37,1.92Z" style="fill:#282828"/><path d="M17.22,41.87l-.1.15c-.35-.12-.7-.26-1-.41l0-.24Z" style="fill:#282828"/><path d="M23,14.8h1.44l0-.15a8.45,8.45,0,0,1,2.48.55l-.08.12,1.3.62,0-.14A9.2,9.2,0,0,1,29.83,17l-.12.07.92,1.1.14-.15a9.37,9.37,0,0,1,1,1.65l-.15,0,.51,1.34.15-.08a8.57,8.57,0,0,1,.38,2l-.14,0v1.44l.14,0a8.67,8.67,0,0,1-.36,1.93l-.12-.07-.54,1.32.15,0a8.31,8.31,0,0,1-1,1.68l-.08-.1-1,1.06.1.07a9.29,9.29,0,0,1-1.73,1.25l0-.12L26.78,32l0,.08a8.78,8.78,0,0,1-2.42.53v-.09H23v.09a8.63,8.63,0,0,1-2.34-.5l0-.07-1.3-.6,0,.09a10,10,0,0,1-1.79-1.27l.08-.06-1-1,0,0a8.62,8.62,0,0,1-1-1.55h.06l-.54-1.33-.05,0a8.4,8.4,0,0,1-.4-2l.1,0V22.93h-.1a8.83,8.83,0,0,1,.39-2l.06,0,.53-1.34h0a8.94,8.94,0,0,1,1.11-1.73l.07.09,1-1-.07-.05a9.48,9.48,0,0,1,1.73-1.19l0,.12,1.31-.58-.06-.09A8.41,8.41,0,0,1,23,14.65Zm.72,15.38a6.53,6.53,0,1,0-6.53-6.53A6.53,6.53,0,0,0,23.7,30.18Z" style="fill:#282828"/><path d="M16.94,67.59a8.21,8.21,0,0,0,1,0L17.54,70a.27.27,0,0,1-.26.23h-.75a.27.27,0,0,1-.27-.24l-.16-1.23L16,67.54A8.21,8.21,0,0,0,16.94,67.59Z" style="fill:#282828"/><path d="M16.91,42.34l.21-.32c.26.1.53.19.79.27v.1a7.94,7.94,0,0,0-1,0Z" style="fill:#282828"/><path d="M16.91,42.34l-.16.25h-.82l0-.2A7.46,7.46,0,0,1,16.91,42.34Z" style="fill:#282828"/><path d="M17.61,40l.3,2.29c-.26-.08-.53-.17-.79-.27l.1-.15-1.1-.5L16.33,40a.27.27,0,0,1,.27-.23h.74A.27.27,0,0,1,17.61,40Z" style="fill:#282828"/><path d="M16.91,42.34a7.46,7.46,0,0,0-.95,0l.12-.78c.34.15.69.29,1,.41Z" style="fill:#282828"/><path d="M16.29,15.84l1.43,1a11.68,11.68,0,0,0-1,1L15.66,16.5a.2.2,0,0,1,0-.25l.36-.39A.2.2,0,0,1,16.29,15.84Z" style="fill:#282828"/><path d="M41.84,17.4l-.9.12a.28.28,0,0,0-.24.27v.74a.27.27,0,0,0,.23.27l1.81.28a17.76,17.76,0,0,1,.47,3l-.3-.05v.55l-1.14.64a.28.28,0,0,0-.12.34l.28.68a.27.27,0,0,0,.31.17l.67-.16v.91l.3,0a19.11,19.11,0,0,1-.77,4.16l-.25-.15L41,32l.33.09a19.69,19.69,0,0,1-2.27,3.6l-.17-.2-2.09,2.31L37,38a19.21,19.21,0,0,1-3.72,2.72l-.08-.26-2.8,1.36.11.17a18.71,18.71,0,0,1-5.25,1.15l0-.19H23.5l.39-1.19a.26.26,0,0,0-.14-.33l-.66-.32a.28.28,0,0,0-.34.1L21.47,43c-.22,0-.45,0-.67-.09a11,11,0,0,0-2.37-.51l-.52-.15L17.61,40a.27.27,0,0,0-.27-.24H16.6a.27.27,0,0,0-.27.23l-.21,1.38-1.73-.79-.06.19A19.66,19.66,0,0,1,10.48,38l.14-.1-2.2-2.2,0,0a19.23,19.23,0,0,1-2.13-3.33l.12,0L5.21,29.48l-.11.06a18.77,18.77,0,0,1-.85-4.38l.2,0V22.06l-.2,0a19.19,19.19,0,0,1,.84-4.38l.13.07,1.14-2.89-.11,0a19.13,19.13,0,0,1,2.43-3.71l.13.17,2.13-2.27L10.81,9a19.57,19.57,0,0,1,3.71-2.59l.07.25,2.85-1.24-.13-.22a18.58,18.58,0,0,1,4.9-1l-.05.32h3.13l0-.32a18.48,18.48,0,0,1,5.37,1.19l-.17.25,2.8,1.34.1-.32A19.54,19.54,0,0,1,37,9.25l-.24.15,2,2.38.29-.32A18.51,18.51,0,0,1,41.29,15l-.33.07Zm-4,6.21A14.14,14.14,0,1,0,23.73,37.76,14.14,14.14,0,0,0,37.87,23.61Z" style="fill:#282828"/><path d="M17.57,30.3l-1.43,1a.19.19,0,0,1-.25,0L15.52,31a.19.19,0,0,1,0-.25l1.11-1.45A12,12,0,0,0,17.57,30.3Z" style="fill:#282828"/><path d="M16.12,41.37l0,.24a18.74,18.74,0,0,1-1.75-.84l.06-.19Z" style="fill:#282828"/><path d="M16.08,41.61l-.12.78a11,11,0,0,0-2.24.37l.61-2A18.74,18.74,0,0,0,16.08,41.61Z" style="fill:#282828"/><path d="M15.15,26.36l.54,1.33h-.06a8.35,8.35,0,0,1-.53-1.31Z" style="fill:#282828"/><path d="M15.68,19.62,15.15,21l-.06,0a7.62,7.62,0,0,1,.54-1.32Z" style="fill:#282828"/><path d="M15.63,19.61a7.62,7.62,0,0,0-.54,1.32L13.54,20a.19.19,0,0,1-.08-.24l.19-.49a.19.19,0,0,1,.23-.11Z" style="fill:#282828"/><path d="M13.65,28l-.2-.49a.19.19,0,0,1,.08-.24l1.57-.88a8.35,8.35,0,0,0,.53,1.31l-1.76.41A.18.18,0,0,1,13.65,28Z" style="fill:#282828"/><path d="M15,45.25a.43.43,0,0,1-.53.15l-1-.47a.42.42,0,0,1-.22-.51l.51-1.66A11,11,0,0,1,16,42.39l0,.2h.82Z" style="fill:#282828"/><path d="M14.8,22.93v1.45l-.1,0c0-.23,0-.47,0-.71s0-.48,0-.71Z" style="fill:#282828"/><path d="M14.67,23.65c0,.24,0,.48,0,.71l-1.76-.27a.2.2,0,0,1-.17-.19v-.54a.19.19,0,0,1,.17-.19l1.76-.23C14.68,23.17,14.67,23.41,14.67,23.65Z" style="fill:#282828"/><path d="M26.06,55a9.13,9.13,0,1,0-9.12,9.13A9.12,9.12,0,0,0,26.06,55ZM24.25,47.3a.43.43,0,0,0,.42-.36l.27-1.74c.19.16.38.32.56.49l-.16.1,1.29,1.54.19-.21a12.37,12.37,0,0,1,1.46,2.29l-.22.05.72,1.87.21-.11A11.52,11.52,0,0,1,29.51,54l-.2,0v2l.2,0a11.42,11.42,0,0,1-.5,2.69l-.16-.1-.76,1.86.22.06a12.65,12.65,0,0,1-1.47,2.32l-.11-.13-1.35,1.49.13.09A12.57,12.57,0,0,1,23.1,66l-.05-.17-1.81.88.08.12a11.92,11.92,0,0,1-3.39.73l0-.12h-2l0,.12a12.2,12.2,0,0,1-3.27-.69l.06-.1-1.83-.83,0,.12a12.57,12.57,0,0,1-2.48-1.8l.09-.06L7.06,62.76l0,0a12.31,12.31,0,0,1-1.38-2.15l.08,0L5,58.75l-.06,0A11.54,11.54,0,0,1,4.37,56l.12,0V54l-.12,0a11.53,11.53,0,0,1,.54-2.83L5,51.2l.73-1.87-.07,0a12.33,12.33,0,0,1,1.57-2.39l.09.11,1.37-1.47L8.6,45.5A12.05,12.05,0,0,1,11,43.83L11,44l1.84-.8-.09-.14a7.84,7.84,0,0,1,.94-.29l-.51,1.66a.42.42,0,0,0,.22.51l1,.47a.43.43,0,0,0,.53-.15l1.75-2.66H18l0-.2a2.94,2.94,0,0,1,.51,0A18.47,18.47,0,0,0,20.8,43a4.1,4.1,0,0,1,.59.2l-.12.17,1,.48.4,3.13a.43.43,0,0,0,.42.37Z" style="fill:#282828"/><path d="M12.78,43.05l.09.14L11,44l0-.16A11.4,11.4,0,0,1,12.78,43.05Z" style="fill:#282828"/><path d="M11.54,41l1.24,2.09a11.4,11.4,0,0,0-1.79.78l-.62-2.37a.26.26,0,0,1,.16-.31l.67-.3A.27.27,0,0,1,11.54,41Z" style="fill:#282828"/><path d="M12.74,66.75l-.06.1A11.76,11.76,0,0,1,10.87,66l0-.12Z" style="fill:#282828"/><path d="M11.3,68.93A.28.28,0,0,1,11,69l-.67-.31a.28.28,0,0,1-.15-.33L10.87,66a11.76,11.76,0,0,0,1.81.81Z" style="fill:#282828"/><path d="M10.94,9.05,8.81,11.32l-.13-.17A17.71,17.71,0,0,1,10.81,9Z" style="fill:#282828"/><path d="M7.68,6.7,10.81,9a17.71,17.71,0,0,0-2.13,2.2l-2.36-3a.4.4,0,0,1,0-.54l.78-.83A.42.42,0,0,1,7.68,6.7Z" style="fill:#282828"/><path d="M10.62,37.89l-.14.1a18.68,18.68,0,0,1-2.09-2.27l0,0Z" style="fill:#282828"/><path d="M8.39,35.72A18.68,18.68,0,0,0,10.48,38L7.36,40.28a.43.43,0,0,1-.55-.05l-.8-.8a.43.43,0,0,1,0-.56Z" style="fill:#282828"/><path d="M8.68,45.56,7.31,47l-.09-.11A11.57,11.57,0,0,1,8.6,45.5Z" style="fill:#282828"/><path d="M8.48,64.18l-.09.06A11.68,11.68,0,0,1,7,62.78l0,0Z" style="fill:#282828"/><path d="M8.39,64.24l-2,1.48a.26.26,0,0,1-.35,0l-.52-.52a.27.27,0,0,1,0-.36l1.57-2A11.68,11.68,0,0,0,8.39,64.24Z" style="fill:#282828"/><path d="M6.58,44.05l2,1.45a11.57,11.57,0,0,0-1.38,1.42L5.7,45a.27.27,0,0,1,0-.35l.5-.54A.27.27,0,0,1,6.58,44.05Z" style="fill:#282828"/><path d="M5.21,29.48l1.17,2.88-.12,0A18.7,18.7,0,0,1,5.1,29.54Z" style="fill:#282828"/><path d="M6.36,14.89,5.22,17.78l-.13-.07a18.7,18.7,0,0,1,1.16-2.85Z" style="fill:#282828"/><path d="M6.26,32.39l-3.82.89A.41.41,0,0,1,2,33L1.53,32a.43.43,0,0,1,.18-.53L5.1,29.54A18.7,18.7,0,0,0,6.26,32.39Z" style="fill:#282828"/><path d="M2.46,13.9l3.79,1a18.7,18.7,0,0,0-1.16,2.85l-3.36-2a.42.42,0,0,1-.18-.52L2,14.16A.42.42,0,0,1,2.46,13.9Z" style="fill:#282828"/><path d="M5,58.75l.76,1.86-.08,0a12.85,12.85,0,0,1-.74-1.84Z" style="fill:#282828"/><path d="M5.72,49.33,5,51.2l-.08-.05a12.4,12.4,0,0,1,.74-1.84Z" style="fill:#282828"/><path d="M5.65,49.31a12.4,12.4,0,0,0-.74,1.84L2.74,49.88a.27.27,0,0,1-.12-.34l.27-.68a.26.26,0,0,1,.32-.16Z" style="fill:#282828"/><path d="M2.88,61l-.27-.68A.27.27,0,0,1,2.73,60l2.19-1.23a12.85,12.85,0,0,0,.74,1.84l-2.46.58A.28.28,0,0,1,2.88,61Z" style="fill:#282828"/><path d="M4.49,54v2l-.12,0a8.27,8.27,0,0,1,0-1,7.94,7.94,0,0,1,0-1Z" style="fill:#282828"/><path d="M4.45,22.06v3.13l-.2,0c0-.51-.07-1-.07-1.55s0-1,.07-1.52Z" style="fill:#282828"/><path d="M4.32,55a8.27,8.27,0,0,0,0,1l-2.48-.38a.27.27,0,0,1-.23-.27v-.74a.26.26,0,0,1,.24-.27L4.37,54A7.94,7.94,0,0,0,4.32,55Z" style="fill:#282828"/><path d="M.43,22.58l3.82-.49c0,.5-.07,1-.07,1.52s0,1,.07,1.55L.42,24.57a.42.42,0,0,1-.36-.42V23A.43.43,0,0,1,.43,22.58Z" style="fill:#282828"/><path d="M30.62,5.32a18.48,18.48,0,0,0-5.37-1.19" style="fill:none;stroke:#282828;stroke-miterlimit:10;stroke-width:0.119824083044692px"/><path d="M37,9.25a19.54,19.54,0,0,0-3.64-2.66" style="fill:none;stroke:#282828;stroke-miterlimit:10;stroke-width:0.119824083044692px"/><path d="M41.29,15A18.51,18.51,0,0,0,39,11.46" style="fill:none;stroke:#282828;stroke-miterlimit:10;stroke-width:0.119824083044692px"/><path d="M43.21,22.1a17.76,17.76,0,0,0-.47-3" style="fill:none;stroke:#282828;stroke-miterlimit:10;stroke-width:0.119824083044692px"/><path d="M42.44,29.3a19.11,19.11,0,0,0,.77-4.16" style="fill:none;stroke:#282828;stroke-miterlimit:10;stroke-width:0.119824083044692px"/><path d="M39.07,35.72a19.69,19.69,0,0,0,2.27-3.6" style="fill:none;stroke:#282828;stroke-miterlimit:10;stroke-width:0.119824083044692px"/><path d="M33.28,40.68A19.21,19.21,0,0,0,37,38" style="fill:none;stroke:#282828;stroke-miterlimit:10;stroke-width:0.119824083044692px"/><path d="M25.26,43.1A18.71,18.71,0,0,0,30.51,42" style="fill:none;stroke:#282828;stroke-miterlimit:10;stroke-width:0.119824083044692px"/><path d="M20.8,43c.22,0,.45.06.67.09" style="fill:none;stroke:#282828;stroke-miterlimit:10;stroke-width:0.119824083044692px"/><path d="M17.91,42.29l.52.15" style="fill:none;stroke:#282828;stroke-miterlimit:10;stroke-width:0.119824083044692px"/><path d="M10.48,38a19.66,19.66,0,0,0,3.85,2.78" style="fill:none;stroke:#282828;stroke-miterlimit:10;stroke-width:0.119824083044692px"/><path d="M6.26,32.39a19.23,19.23,0,0,0,2.13,3.33" style="fill:none;stroke:#282828;stroke-miterlimit:10;stroke-width:0.119824083044692px"/><path d="M4.25,25.16a18.77,18.77,0,0,0,.85,4.38" style="fill:none;stroke:#282828;stroke-miterlimit:10;stroke-width:0.119824083044692px"/><path d="M5.09,17.71a19.19,19.19,0,0,0-.84,4.38" style="fill:none;stroke:#282828;stroke-miterlimit:10;stroke-width:0.119824083044692px"/><path d="M8.68,11.15a19.13,19.13,0,0,0-2.43,3.71" style="fill:none;stroke:#282828;stroke-miterlimit:10;stroke-width:0.119824083044692px"/><path d="M14.52,6.36A19.57,19.57,0,0,0,10.81,9" style="fill:none;stroke:#282828;stroke-miterlimit:10;stroke-width:0.119824083044692px"/><path d="M22.21,4.13a18.58,18.58,0,0,0-4.9,1" style="fill:none;stroke:#282828;stroke-miterlimit:10;stroke-width:0.119824083044692px"/><path d="M23.73,37.76A14.15,14.15,0,1,1,37.87,23.61,14.15,14.15,0,0,1,23.73,37.76Z" style="fill:none;stroke:#282828;stroke-miterlimit:10;stroke-width:0.119824083044692px"/><path d="M25.25,4.13l0,.32H22.16l.05-.32L22.79.42A.42.42,0,0,1,23.2.06h1.16a.43.43,0,0,1,.42.37Z" style="fill:none;stroke:#282828;stroke-miterlimit:10;stroke-width:0.119824083044692px"/><path d="M37,38l-.19-.13,2.09-2.31.17.2,2.37,3a.41.41,0,0,1,0,.54l-.76.85a.42.42,0,0,1-.55.06Z" style="fill:none;stroke:#282828;stroke-miterlimit:10;stroke-width:0.119824083044692px"/><polyline points="45.28 24.87 43.21 25.14 42.91 25.18 42.91 24.27" style="fill:none;stroke:#282828;stroke-miterlimit:10;stroke-width:0.119824083044692px"/><polyline points="42.91 22.6 42.91 22.05 43.21 22.1 43.68 22.17" style="fill:none;stroke:#282828;stroke-miterlimit:10;stroke-width:0.119824083044692px"/><path d="M4.25,22.09l.2,0v3.13l-.2,0L.42,24.57a.42.42,0,0,1-.36-.42V23a.43.43,0,0,1,.37-.42Z" style="fill:none;stroke:#282828;stroke-miterlimit:10;stroke-width:0.119824083044692px"/><path d="M10.81,9l.13.1L8.81,11.32l-.13-.17-2.36-3a.4.4,0,0,1,0-.54l.78-.83a.42.42,0,0,1,.55-.06Z" style="fill:none;stroke:#282828;stroke-miterlimit:10;stroke-width:0.119824083044692px"/><path d="M39,11.46l-.29.32-2-2.38L37,9.25,40.2,7.3a.44.44,0,0,1,.54.09l.74.88a.41.41,0,0,1,0,.55Z" style="fill:none;stroke:#282828;stroke-miterlimit:10;stroke-width:0.119824083044692px"/><path d="M8.39,35.72l0,0,2.2,2.2-.14.1L7.36,40.28a.43.43,0,0,1-.55-.05l-.8-.8a.43.43,0,0,1,0-.56Z" style="fill:none;stroke:#282828;stroke-miterlimit:10;stroke-width:0.119824083044692px"/><polyline points="23.5 42.91 25.29 42.91 25.26 43.1 24.94 45.2" style="fill:none;stroke:#282828;stroke-miterlimit:10;stroke-width:0.119824083044692px"/><path d="M30.51,42l-.11-.17,2.8-1.36.08.26,1.1,3.6a.43.43,0,0,1-.22.51l-1,.49a.42.42,0,0,1-.54-.14Z" style="fill:none;stroke:#282828;stroke-miterlimit:10;stroke-width:0.119824083044692px"/><polyline points="13.72 42.76 14.33 40.77 14.39 40.58 16.12 41.37" style="fill:none;stroke:#282828;stroke-miterlimit:10;stroke-width:0.119824083044692px"/><path d="M5.1,29.54l.11-.06,1.17,2.88-.12,0-3.82.89A.41.41,0,0,1,2,33L1.53,32a.43.43,0,0,1,.18-.53Z" style="fill:none;stroke:#282828;stroke-miterlimit:10;stroke-width:0.119824083044692px"/><path d="M6.25,14.86l.11,0L5.22,17.78l-.13-.07-3.36-2a.42.42,0,0,1-.18-.52L2,14.16a.42.42,0,0,1,.49-.26Z" style="fill:none;stroke:#282828;stroke-miterlimit:10;stroke-width:0.119824083044692px"/><path d="M17.31,5.15l.13.22L14.59,6.61l-.07-.25-1-3.66a.42.42,0,0,1,.24-.49l1-.46a.43.43,0,0,1,.53.17Z" style="fill:none;stroke:#282828;stroke-miterlimit:10;stroke-width:0.119824083044692px"/><path d="M33.35,6.59l-.1.32-2.8-1.34.17-.25,2.11-3.08a.41.41,0,0,1,.53-.15l1,.5a.43.43,0,0,1,.22.51Z" style="fill:none;stroke:#282828;stroke-miterlimit:10;stroke-width:0.119824083044692px"/><polyline points="41.84 17.4 40.96 15.09 41.29 15.02 43.93 14.44" style="fill:none;stroke:#282828;stroke-miterlimit:10;stroke-width:0.119824083044692px"/><path d="M41.34,32.12,41,32l1.18-2.88.25.15,3.21,1.94a.42.42,0,0,1,.17.52l-.43,1.05a.41.41,0,0,1-.5.25Z" style="fill:none;stroke:#282828;stroke-miterlimit:10;stroke-width:0.119824083044692px"/><path d="M26.88,15.2a8.45,8.45,0,0,0-2.48-.55" style="fill:none;stroke:#282828;stroke-miterlimit:10;stroke-width:0.055329206097977px"/><path d="M29.83,17a9.2,9.2,0,0,0-1.68-1.21" style="fill:none;stroke:#282828;stroke-miterlimit:10;stroke-width:0.055329206097977px"/><path d="M31.81,19.68a9.37,9.37,0,0,0-1-1.65" style="fill:none;stroke:#282828;stroke-miterlimit:10;stroke-width:0.055329206097977px"/><path d="M32.7,23a8.57,8.57,0,0,0-.38-2" style="fill:none;stroke:#282828;stroke-miterlimit:10;stroke-width:0.055329206097977px"/><path d="M32.34,26.28a8.67,8.67,0,0,0,.36-1.93" style="fill:none;stroke:#282828;stroke-miterlimit:10;stroke-width:0.055329206097977px"/><path d="M30.78,29.25a8.31,8.31,0,0,0,1-1.68" style="fill:none;stroke:#282828;stroke-miterlimit:10;stroke-width:0.055329206097977px"/><path d="M28.11,31.53a9.29,9.29,0,0,0,1.73-1.25" style="fill:none;stroke:#282828;stroke-miterlimit:10;stroke-width:0.055329206097977px"/><path d="M24.41,32.65a8.78,8.78,0,0,0,2.42-.53" style="fill:none;stroke:#282828;stroke-miterlimit:10;stroke-width:0.055329206097977px"/><path d="M20.65,32.15a8.63,8.63,0,0,0,2.34.5" style="fill:none;stroke:#282828;stroke-miterlimit:10;stroke-width:0.055329206097977px"/><path d="M17.57,30.3a10,10,0,0,0,1.79,1.27" style="fill:none;stroke:#282828;stroke-miterlimit:10;stroke-width:0.055329206097977px"/><path d="M15.63,27.7a8.62,8.62,0,0,0,1,1.55" style="fill:none;stroke:#282828;stroke-miterlimit:10;stroke-width:0.055329206097977px"/><path d="M14.7,24.36a8.4,8.4,0,0,0,.4,2" style="fill:none;stroke:#282828;stroke-miterlimit:10;stroke-width:0.055329206097977px"/><path d="M15.09,20.93a8.83,8.83,0,0,0-.39,2" style="fill:none;stroke:#282828;stroke-miterlimit:10;stroke-width:0.055329206097977px"/><path d="M16.74,17.88a8.94,8.94,0,0,0-1.11,1.73" style="fill:none;stroke:#282828;stroke-miterlimit:10;stroke-width:0.055329206097977px"/><path d="M19.45,15.68a9.48,9.48,0,0,0-1.73,1.19" style="fill:none;stroke:#282828;stroke-miterlimit:10;stroke-width:0.055329206097977px"/><path d="M23,14.65a8.41,8.41,0,0,0-2.27.48" style="fill:none;stroke:#282828;stroke-miterlimit:10;stroke-width:0.055329206097977px"/><circle cx="23.7" cy="23.65" r="6.53" style="fill:none;stroke:#282828;stroke-miterlimit:10;stroke-width:0.055329206097977px"/><path d="M24.4,14.65l0,.15H23l0-.15.27-1.71a.19.19,0,0,1,.19-.17H24a.19.19,0,0,1,.19.17Z" style="fill:none;stroke:#282828;stroke-miterlimit:10;stroke-width:0.055329206097977px"/><path d="M29.84,30.28l-.1-.07,1-1.06.08.1,1.1,1.35a.18.18,0,0,1,0,.25l-.35.39a.19.19,0,0,1-.26,0Z" style="fill:none;stroke:#282828;stroke-miterlimit:10;stroke-width:0.055329206097977px"/><path d="M32.7,24.35l-.14,0V22.93l.14,0,1.72.27a.19.19,0,0,1,.16.19v.53a.19.19,0,0,1-.17.19Z" style="fill:none;stroke:#282828;stroke-miterlimit:10;stroke-width:0.055329206097977px"/><path d="M14.7,22.94h.1v1.45l-.1,0-1.76-.27a.2.2,0,0,1-.17-.19v-.54a.19.19,0,0,1,.17-.19Z" style="fill:none;stroke:#282828;stroke-miterlimit:10;stroke-width:0.055329206097977px"/><path d="M17.72,16.87l.07.05-1,1-.07-.09L15.66,16.5a.2.2,0,0,1,0-.25l.36-.39a.2.2,0,0,1,.26,0Z" style="fill:none;stroke:#282828;stroke-miterlimit:10;stroke-width:0.055329206097977px"/><path d="M30.77,18l-.14.15-.92-1.1.12-.07,1.48-.89a.2.2,0,0,1,.25,0l.34.4a.2.2,0,0,1,0,.26Z" style="fill:none;stroke:#282828;stroke-miterlimit:10;stroke-width:0.055329206097977px"/><path d="M16.61,29.25l0,0,1,1-.08.06-1.43,1a.19.19,0,0,1-.25,0L15.52,31a.19.19,0,0,1,0-.25Z" style="fill:none;stroke:#282828;stroke-miterlimit:10;stroke-width:0.055329206097977px"/><path d="M23,32.65v-.09h1.44v.09l-.28,1.77a.19.19,0,0,1-.19.16h-.53a.19.19,0,0,1-.19-.17Z" style="fill:none;stroke:#282828;stroke-miterlimit:10;stroke-width:0.055329206097977px"/><path d="M26.83,32.12l0-.08,1.29-.63,0,.12.51,1.66a.21.21,0,0,1-.1.24l-.48.23a.19.19,0,0,1-.24-.07Z" style="fill:none;stroke:#282828;stroke-miterlimit:10;stroke-width:0.055329206097977px"/><path d="M19.36,31.57l0-.09,1.3.6,0,.07-1,1.49a.2.2,0,0,1-.25.07L19,33.49a.19.19,0,0,1-.11-.23Z" style="fill:none;stroke:#282828;stroke-miterlimit:10;stroke-width:0.055329206097977px"/><path d="M15.1,26.39l.05,0,.54,1.33h-.06l-1.76.41a.18.18,0,0,1-.22-.11l-.2-.49a.19.19,0,0,1,.08-.24Z" style="fill:none;stroke:#282828;stroke-miterlimit:10;stroke-width:0.055329206097977px"/><path d="M15.63,19.61h0L15.15,21l-.06,0L13.54,20a.19.19,0,0,1-.08-.24l.19-.49a.19.19,0,0,1,.23-.11Z" style="fill:none;stroke:#282828;stroke-miterlimit:10;stroke-width:0.055329206097977px"/><path d="M20.73,15.13l.06.09-1.31.58,0-.12L19,14a.21.21,0,0,1,.11-.23l.49-.21a.19.19,0,0,1,.24.08Z" style="fill:none;stroke:#282828;stroke-miterlimit:10;stroke-width:0.055329206097977px"/><path d="M28.15,15.8l0,.14-1.3-.62.08-.12,1-1.42a.19.19,0,0,1,.24-.07l.48.23a.19.19,0,0,1,.1.24Z" style="fill:none;stroke:#282828;stroke-miterlimit:10;stroke-width:0.055329206097977px"/><path d="M32.32,21l-.15.08-.51-1.34.15,0,1.67-.36a.19.19,0,0,1,.22.12l.19.49a.19.19,0,0,1-.09.24Z" style="fill:none;stroke:#282828;stroke-miterlimit:10;stroke-width:0.055329206097977px"/><path d="M31.83,27.57l-.15,0,.54-1.32.12.07,1.48.89a.19.19,0,0,1,.08.24l-.2.49a.18.18,0,0,1-.23.11Z" style="fill:none;stroke:#282828;stroke-miterlimit:10;stroke-width:0.055329206097977px"/><path d="M21.39,43.15a4.1,4.1,0,0,0-.59-.2,11,11,0,0,0-2.37-.51,2.94,2.94,0,0,0-.51,0" style="fill:none;stroke:#282828;stroke-miterlimit:10;stroke-width:0.07734318372198px"/><path d="M25.5,45.69c-.18-.17-.37-.33-.56-.49A12.9,12.9,0,0,0,23.15,44" style="fill:none;stroke:#282828;stroke-miterlimit:10;stroke-width:0.07734318372198px"/><path d="M28.28,49.41a12.37,12.37,0,0,0-1.46-2.29" style="fill:none;stroke:#282828;stroke-miterlimit:10;stroke-width:0.07734318372198px"/><path d="M29.51,54A11.52,11.52,0,0,0,29,51.22" style="fill:none;stroke:#282828;stroke-miterlimit:10;stroke-width:0.07734318372198px"/><path d="M29,58.64a11.42,11.42,0,0,0,.5-2.69" style="fill:none;stroke:#282828;stroke-miterlimit:10;stroke-width:0.07734318372198px"/><path d="M26.84,62.78a12.65,12.65,0,0,0,1.47-2.32" style="fill:none;stroke:#282828;stroke-miterlimit:10;stroke-width:0.07734318372198px"/><path d="M23.1,66a12.57,12.57,0,0,0,2.41-1.75" style="fill:none;stroke:#282828;stroke-miterlimit:10;stroke-width:0.07734318372198px"/><path d="M17.93,67.54a11.92,11.92,0,0,0,3.39-.73" style="fill:none;stroke:#282828;stroke-miterlimit:10;stroke-width:0.07734318372198px"/><path d="M12.68,66.85a12.2,12.2,0,0,0,3.27.69" style="fill:none;stroke:#282828;stroke-miterlimit:10;stroke-width:0.07734318372198px"/><path d="M8.39,64.24A12.57,12.57,0,0,0,10.87,66" style="fill:none;stroke:#282828;stroke-miterlimit:10;stroke-width:0.07734318372198px"/><path d="M5.66,60.63A12.31,12.31,0,0,0,7,62.78" style="fill:none;stroke:#282828;stroke-miterlimit:10;stroke-width:0.07734318372198px"/><path d="M4.37,56a11.54,11.54,0,0,0,.55,2.83" style="fill:none;stroke:#282828;stroke-miterlimit:10;stroke-width:0.07734318372198px"/><path d="M4.91,51.15A11.53,11.53,0,0,0,4.37,54" style="fill:none;stroke:#282828;stroke-miterlimit:10;stroke-width:0.07734318372198px"/><path d="M7.22,46.92a12.33,12.33,0,0,0-1.57,2.39" style="fill:none;stroke:#282828;stroke-miterlimit:10;stroke-width:0.07734318372198px"/><path d="M11,43.83A12.05,12.05,0,0,0,8.6,45.5" style="fill:none;stroke:#282828;stroke-miterlimit:10;stroke-width:0.07734318372198px"/><path d="M16,42.39a11,11,0,0,0-2.24.37,7.84,7.84,0,0,0-.94.29" style="fill:none;stroke:#282828;stroke-miterlimit:10;stroke-width:0.07734318372198px"/><path d="M16.94,64.09A9.13,9.13,0,1,1,26.06,55,9.12,9.12,0,0,1,16.94,64.09Z" style="fill:none;stroke:#282828;stroke-miterlimit:10;stroke-width:0.07734318372198px"/><path d="M17.92,42.39l0,.2h-2l0-.2.12-.78,0-.24L16.33,40a.27.27,0,0,1,.27-.23h.74a.27.27,0,0,1,.27.24l.3,2.29Z" style="fill:none;stroke:#282828;stroke-miterlimit:10;stroke-width:0.07734318372198px"/><path d="M25.51,64.23l-.13-.09,1.35-1.49.11.13,1.53,1.9a.27.27,0,0,1,0,.35l-.5.55a.26.26,0,0,1-.35,0Z" style="fill:none;stroke:#282828;stroke-miterlimit:10;stroke-width:0.07734318372198px"/><path d="M29.51,56l-.2,0V54l.2,0,2.41.38a.27.27,0,0,1,.23.27v.74a.28.28,0,0,1-.24.27Z" style="fill:none;stroke:#282828;stroke-miterlimit:10;stroke-width:0.07734318372198px"/><path d="M4.37,54l.12,0v2l-.12,0-2.48-.38a.27.27,0,0,1-.23-.27v-.74a.26.26,0,0,1,.24-.27Z" style="fill:none;stroke:#282828;stroke-miterlimit:10;stroke-width:0.07734318372198px"/><path d="M8.6,45.5l.08.06L7.31,47l-.09-.11L5.7,45a.27.27,0,0,1,0-.35l.5-.54a.27.27,0,0,1,.36,0Z" style="fill:none;stroke:#282828;stroke-miterlimit:10;stroke-width:0.07734318372198px"/><path d="M26.82,47.12l-.19.21-1.29-1.54.16-.1,2.07-1.25a.27.27,0,0,1,.35.05l.47.57a.26.26,0,0,1,0,.36Z" style="fill:none;stroke:#282828;stroke-miterlimit:10;stroke-width:0.07734318372198px"/><path d="M7,62.78l0,0,1.42,1.42-.09.06-2,1.48a.26.26,0,0,1-.35,0l-.52-.52a.27.27,0,0,1,0-.36Z" style="fill:none;stroke:#282828;stroke-miterlimit:10;stroke-width:0.07734318372198px"/><path d="M16,67.54l0-.12h2l0,.12L17.54,70a.27.27,0,0,1-.26.23h-.75a.27.27,0,0,1-.27-.24l-.16-1.23Z" style="fill:none;stroke:#282828;stroke-miterlimit:10;stroke-width:0.07734318372198px"/><path d="M21.32,66.81l-.08-.12,1.81-.88.05.17.71,2.33a.27.27,0,0,1-.14.32L23,69a.28.28,0,0,1-.35-.09Z" style="fill:none;stroke:#282828;stroke-miterlimit:10;stroke-width:0.07734318372198px"/><path d="M10.87,66l0-.12,1.83.83-.06.1L11.3,68.93A.28.28,0,0,1,11,69l-.67-.31a.28.28,0,0,1-.15-.33Z" style="fill:none;stroke:#282828;stroke-miterlimit:10;stroke-width:0.07734318372198px"/><path d="M4.92,58.79l.06,0,.76,1.86-.08,0-2.46.58A.28.28,0,0,1,2.88,61l-.27-.68A.27.27,0,0,1,2.73,60Z" style="fill:none;stroke:#282828;stroke-miterlimit:10;stroke-width:0.07734318372198px"/><path d="M5.65,49.31l.07,0L5,51.2l-.08-.05L2.74,49.88a.27.27,0,0,1-.12-.34l.27-.68a.26.26,0,0,1,.32-.16Z" style="fill:none;stroke:#282828;stroke-miterlimit:10;stroke-width:0.07734318372198px"/><path d="M12.78,43.05l.09.14L11,44l0-.16-.62-2.37a.26.26,0,0,1,.16-.31l.67-.3a.27.27,0,0,1,.34.11Z" style="fill:none;stroke:#282828;stroke-miterlimit:10;stroke-width:0.07734318372198px"/><path d="M23.15,44l-.07.22-.8-.39-1-.48.12-.17.08-.11,1.28-1.87a.28.28,0,0,1,.34-.1l.66.32a.26.26,0,0,1,.14.33l-.39,1.19-.08.25Z" style="fill:none;stroke:#282828;stroke-miterlimit:10;stroke-width:0.07734318372198px"/><path d="M29,51.22l-.21.11-.72-1.87.22-.05,2.33-.5a.27.27,0,0,1,.31.17l.26.68a.27.27,0,0,1-.12.34L29,51.21Z" style="fill:none;stroke:#282828;stroke-miterlimit:10;stroke-width:0.07734318372198px"/><path d="M28.31,60.46l-.22-.06.76-1.86.16.1,2.08,1.25a.27.27,0,0,1,.11.33l-.28.68a.26.26,0,0,1-.32.16Z" style="fill:none;stroke:#282828;stroke-miterlimit:10;stroke-width:0.07734318372198px"/><path d="M60.43,6.38A11.83,11.83,0,0,0,57,5.61" style="fill:none;stroke:#282828;stroke-miterlimit:10;stroke-width:0.07734318372198px"/><path d="M64.54,8.91A12.78,12.78,0,0,0,62.2,7.2" style="fill:none;stroke:#282828;stroke-miterlimit:10;stroke-width:0.07734318372198px"/><path d="M67.32,12.63a12.71,12.71,0,0,0-1.46-2.29" style="fill:none;stroke:#282828;stroke-miterlimit:10;stroke-width:0.07734318372198px"/><path d="M68.55,17.21A11.6,11.6,0,0,0,68,14.44" style="fill:none;stroke:#282828;stroke-miterlimit:10;stroke-width:0.07734318372198px"/><path d="M68.05,21.85a10.9,10.9,0,0,0,.46-2.23,2.28,2.28,0,0,0,0-.45" style="fill:none;stroke:#282828;stroke-miterlimit:10;stroke-width:0.07734318372198px"/><path d="M65.88,26a13.08,13.08,0,0,0,1.47-2.33" style="fill:none;stroke:#282828;stroke-miterlimit:10;stroke-width:0.07734318372198px"/><path d="M62.14,29.2a12.21,12.21,0,0,0,2.41-1.76" style="fill:none;stroke:#282828;stroke-miterlimit:10;stroke-width:0.07734318372198px"/><path d="M57,30.76A11.6,11.6,0,0,0,60.36,30" style="fill:none;stroke:#282828;stroke-miterlimit:10;stroke-width:0.07734318372198px"/><path d="M51.72,30.07a12.2,12.2,0,0,0,3.27.69" style="fill:none;stroke:#282828;stroke-miterlimit:10;stroke-width:0.07734318372198px"/><path d="M47.43,27.46a12.68,12.68,0,0,0,2.49,1.81" style="fill:none;stroke:#282828;stroke-miterlimit:10;stroke-width:0.07734318372198px"/><path d="M44.7,23.85a10.29,10.29,0,0,0,.58,1,10.13,10.13,0,0,0,.8,1.14" style="fill:none;stroke:#282828;stroke-miterlimit:10;stroke-width:0.07734318372198px"/><path d="M43.41,19.18A11.53,11.53,0,0,0,44,22" style="fill:none;stroke:#282828;stroke-miterlimit:10;stroke-width:0.07734318372198px"/><path d="M44,14.37a.25.25,0,0,0,0,.07,11.61,11.61,0,0,0-.52,2.76" style="fill:none;stroke:#282828;stroke-miterlimit:10;stroke-width:0.07734318372198px"/><path d="M46.27,10.13a12.4,12.4,0,0,0-1.57,2.4" style="fill:none;stroke:#282828;stroke-miterlimit:10;stroke-width:0.07734318372198px"/><path d="M50,7.05a12.12,12.12,0,0,0-2.4,1.67" style="fill:none;stroke:#282828;stroke-miterlimit:10;stroke-width:0.07734318372198px"/><path d="M55,5.61a11.83,11.83,0,0,0-3.17.65" style="fill:none;stroke:#282828;stroke-miterlimit:10;stroke-width:0.07734318372198px"/><path d="M65.1,18.48a9,9,0,1,1,0-.29A2.81,2.81,0,0,1,65.1,18.48Z" style="fill:none;stroke:#282828;stroke-miterlimit:10;stroke-width:0.07734318372198px"/><path d="M57,5.61l0,.21H55l0-.21.37-2.4A.28.28,0,0,1,55.64,3h.75a.28.28,0,0,1,.27.24Z" style="fill:none;stroke:#282828;stroke-miterlimit:10;stroke-width:0.07734318372198px"/><path d="M64.55,27.44l-.12-.08,1.34-1.49.11.14,1.53,1.89a.27.27,0,0,1,0,.36l-.49.54a.27.27,0,0,1-.36,0Z" style="fill:none;stroke:#282828;stroke-miterlimit:10;stroke-width:0.07734318372198px"/><path d="M68.55,19.17l-.19,0v-2l.19,0,2.41.37a.27.27,0,0,1,.23.27v.74a.26.26,0,0,1-.24.27Z" style="fill:none;stroke:#282828;stroke-miterlimit:10;stroke-width:0.07734318372198px"/><path d="M43.41,17.2l.13,0v2l-.13,0-.67-.1-1.81-.28a.27.27,0,0,1-.23-.27v-.74a.28.28,0,0,1,.24-.27l.9-.12.41,0Z" style="fill:none;stroke:#282828;stroke-miterlimit:10;stroke-width:0.07734318372198px"/><path d="M47.64,8.72l.09.06-1.37,1.47-.09-.12L44.75,8.19a.26.26,0,0,1,0-.35l.51-.54a.26.26,0,0,1,.35,0Z" style="fill:none;stroke:#282828;stroke-miterlimit:10;stroke-width:0.07734318372198px"/><path d="M65.86,10.34l-.19.21L64.38,9l.16-.1,2.08-1.25a.27.27,0,0,1,.35.06l.47.56a.27.27,0,0,1,0,.36Z" style="fill:none;stroke:#282828;stroke-miterlimit:10;stroke-width:0.07734318372198px"/><path d="M46.08,26l0,0,1.42,1.42-.09.06-2,1.48a.28.28,0,0,1-.36,0l-.52-.52a.27.27,0,0,1,0-.35Z" style="fill:none;stroke:#282828;stroke-miterlimit:10;stroke-width:0.07734318372198px"/><path d="M55,30.76l0-.12h2l0,.12-.38,2.48a.27.27,0,0,1-.27.23h-.74a.26.26,0,0,1-.27-.24Z" style="fill:none;stroke:#282828;stroke-miterlimit:10;stroke-width:0.07734318372198px"/><path d="M60.36,30l-.07-.11,1.8-.88,0,.17.72,2.33a.27.27,0,0,1-.14.32l-.67.32a.27.27,0,0,1-.34-.09Z" style="fill:none;stroke:#282828;stroke-miterlimit:10;stroke-width:0.07734318372198px"/><path d="M49.92,29.27l0-.13,1.82.83-.06.1-1.37,2.08a.28.28,0,0,1-.34.1l-.67-.31a.26.26,0,0,1-.15-.32Z" style="fill:none;stroke:#282828;stroke-miterlimit:10;stroke-width:0.07734318372198px"/><path d="M44,22,44,22l.11.27.64,1.59-.08,0-1.44.34-.35.08-.67.16a.27.27,0,0,1-.31-.17l-.28-.68a.28.28,0,0,1,.12-.34l1.14-.64.33-.18.44-.25Z" style="fill:none;stroke:#282828;stroke-miterlimit:10;stroke-width:0.07734318372198px"/><path d="M44.7,12.53l.07,0L44,14.42,44,14.37,41.78,13.1a.27.27,0,0,1-.11-.33l.27-.69a.26.26,0,0,1,.32-.16Z" style="fill:none;stroke:#282828;stroke-miterlimit:10;stroke-width:0.07734318372198px"/><path d="M51.83,6.26l.09.15-1.84.8,0-.16-.62-2.36a.27.27,0,0,1,.15-.32l.68-.3a.29.29,0,0,1,.34.11Z" style="fill:none;stroke:#282828;stroke-miterlimit:10;stroke-width:0.07734318372198px"/><path d="M62.2,7.2l-.07.21-1.81-.87.11-.16,1.36-2a.28.28,0,0,1,.35-.09l.66.31a.28.28,0,0,1,.14.33Z" style="fill:none;stroke:#282828;stroke-miterlimit:10;stroke-width:0.07734318372198px"/><path d="M68,14.44l-.21.12-.72-1.88.22,0,2.33-.5a.26.26,0,0,1,.31.17l.27.69a.26.26,0,0,1-.12.33Z" style="fill:none;stroke:#282828;stroke-miterlimit:10;stroke-width:0.07734318372198px"/><path d="M67.35,23.68l-.21-.06.76-1.86.15.09,2.08,1.26a.26.26,0,0,1,.11.33l-.28.68a.26.26,0,0,1-.32.16Z" style="fill:none;stroke:#282828;stroke-miterlimit:10;stroke-width:0.07734318372198px"/><path d="M66.12,18.5c.51.36,1,.76,1.5,1.12H705.84" style="fill:none;stroke:#282828;stroke-linecap:round;stroke-miterlimit:10"/><line x1="705.84" y1="19.62" x2="705.84" y2="357.51" style="fill:none;stroke:#282828;stroke-linecap:round;stroke-miterlimit:10;stroke-width:0.998291492462158px"/><line x1="17.49" y1="442.87" x2="705.84" y2="357.51" style="fill:none;stroke:#282828;stroke-linecap:square;stroke-linejoin:round;stroke-width:0.5px"/><line x1="15.39" y1="68.87" x2="17.49" y2="442.8" style="fill:none;stroke:#282828;stroke-linecap:square;stroke-linejoin:round;stroke-width:0.5px"/><rect x="40.69" y="39.78" width="641.71" height="264.25" rx="11.87" style="fill:none;stroke:#282828;stroke-linecap:square;stroke-linejoin:round;stroke-width:0.494460573853585px"/><path d="M22.25,55a5.35,5.35,0,1,1-5.35-5.36A5.35,5.35,0,0,1,22.25,55Z" style="fill:none;stroke:#282828;stroke-linecap:square;stroke-linejoin:round;stroke-width:2px"/><circle cx="55.95" cy="18.23" r="5.35" style="fill:none;stroke:#282828;stroke-linecap:square;stroke-linejoin:round;stroke-width:2px"/></g></g></svg>